<?xml version="1.0" encoding="utf-8"?>
<!-- Generator: Adobe Illustrator 19.0.0, SVG Export Plug-In . SVG Version: 6.00 Build 0)  -->
<svg version="1.1" id="Layer_1" xmlns="http://www.w3.org/2000/svg" xmlns:xlink="http://www.w3.org/1999/xlink" x="0px" y="0px"
	 viewBox="-422.7 244.9 94 72" style="enable-background:new -422.7 244.9 94 72;" xml:space="preserve">
<style type="text/css">
	.st0{fill:none;stroke:#040404;stroke-width:1.5508;stroke-miterlimit:10;}
	.st1{fill:none;stroke:#040404;stroke-width:2.8;stroke-miterlimit:10;}
	.st2{fill:none;stroke:#000000;stroke-width:1.68;stroke-miterlimit:10;}
	.st3{fill:none;stroke:#000000;stroke-width:1.68;stroke-linecap:round;stroke-linejoin:round;stroke-miterlimit:10;}
	.st4{fill:none;}
	.st5{font-family:'CamphorStd-Bold';}
	.st6{font-size:15.12px;}
</style>
<g id="XMLID_3353_">
	<g id="XMLID_3360_">
		<line id="XMLID_3365_" class="st0" x1="-394.1" y1="281.4" x2="-358" y2="281.4"/>
		<line id="XMLID_3364_" class="st0" x1="-394.1" y1="287.4" x2="-358" y2="287.4"/>
		<line id="XMLID_3363_" class="st0" x1="-394.1" y1="293.4" x2="-358" y2="293.4"/>
		<line id="XMLID_3362_" class="st0" x1="-394.1" y1="299.3" x2="-358" y2="299.4"/>
		<line id="XMLID_3361_" class="st0" x1="-394.1" y1="305.3" x2="-358" y2="305.3"/>
	</g>
	<line id="XMLID_3359_" class="st1" x1="-384.2" y1="263" x2="-363.4" y2="263"/>
	<line id="XMLID_3358_" class="st1" x1="-384.2" y1="268.7" x2="-363.4" y2="268.7"/>
	<path id="XMLID_3357_" class="st2" d="M-350.5,259v52.8c0,0.8-0.6,1.4-1.4,1.4h-47.8c-0.8,0-1.4-0.6-1.4-1.4v-62
		c0-0.8,0.6-1.4,1.4-1.4h38.6"/>
	<path id="XMLID_3356_" class="st3" d="M-350.5,259c0,0-8,0-9.2,0c-1.2,0-1.4-0.6-1.4-1.4l0-9.2L-350.5,259z"/>
	<rect id="XMLID_3_" x="-394.6" y="260" class="st4" width="14.9" height="14.6"/>
	<text id="XMLID_3354_" transform="matrix(1 0 0 1 -394.6157 270.879)" class="st5 st6">$</text>
</g>
</svg>
