<?xml version="1.0" encoding="utf-8"?>
<!-- Generator: Adobe Illustrator 19.0.0, SVG Export Plug-In . SVG Version: 6.00 Build 0)  -->
<svg version="1.1" id="Layer_1" xmlns="http://www.w3.org/2000/svg" xmlns:xlink="http://www.w3.org/1999/xlink" x="0px" y="0px"
	 viewBox="-422.7 244.9 94 72" style="enable-background:new -422.7 244.9 94 72;" xml:space="preserve">
<style type="text/css">
	.st0{fill:none;stroke:#000000;stroke-width:1.68;stroke-miterlimit:10;}
	.st1{fill:none;stroke:#000000;stroke-width:1.68;stroke-linecap:round;stroke-linejoin:round;stroke-miterlimit:10;}
	.st2{fill:none;stroke:#040404;stroke-width:2.24;stroke-miterlimit:10;}
</style>
<g id="XMLID_1313_">
	<g id="XMLID_1718_">
		<path id="XMLID_1721_" class="st0" d="M-349.8,259.2V312c0,0.8-0.6,1.4-1.4,1.4H-399c-0.8,0-1.4-0.6-1.4-1.4v-62
			c0-0.8,0.6-1.4,1.4-1.4h38.6"/>
		<path id="XMLID_1720_" class="st1" d="M-349.8,259.2c0,0-8,0-9.2,0s-1.4-0.6-1.4-1.4l0-9.2L-349.8,259.2z"/>
	</g>
	<g id="XMLID_1715_">
		<line id="XMLID_1717_" class="st2" x1="-379.5" y1="270" x2="-356.8" y2="270"/>
		<polyline id="XMLID_1716_" class="st2" points="-393.1,269.4 -390.2,272.3 -383.2,264.9 		"/>
	</g>
	<g id="XMLID_1712_">
		<line id="XMLID_1714_" class="st2" x1="-379.5" y1="278.9" x2="-356.8" y2="278.9"/>
		<polyline id="XMLID_1713_" class="st2" points="-393.1,278.3 -390.2,281.2 -383.2,273.8 		"/>
	</g>
	<g id="XMLID_1704_">
		<line id="XMLID_1711_" class="st2" x1="-379.5" y1="287.9" x2="-356.8" y2="287.9"/>
		<polyline id="XMLID_1710_" class="st2" points="-393.1,287.3 -390.2,290.2 -383.2,282.8 		"/>
	</g>
	<g id="XMLID_1700_">
		<line id="XMLID_1703_" class="st2" x1="-379.5" y1="296.8" x2="-356.8" y2="296.9"/>
		<polyline id="XMLID_1702_" class="st2" points="-393.1,296.2 -390.2,299.1 -383.2,291.8 		"/>
	</g>
</g>
</svg>
