<?xml version="1.0" encoding="utf-8"?>
<!-- Generator: Adobe Illustrator 19.0.0, SVG Export Plug-In . SVG Version: 6.00 Build 0)  -->
<svg version="1.1" id="Layer_1" xmlns="http://www.w3.org/2000/svg" xmlns:xlink="http://www.w3.org/1999/xlink" x="0px" y="0px"
	 viewBox="-422.7 244.9 94 72" style="enable-background:new -422.7 244.9 94 72;" xml:space="preserve">
<style type="text/css">
	.st0{fill:none;stroke:#000000;stroke-width:1.7;stroke-miterlimit:10;}
	.st1{fill:none;stroke:#040404;stroke-width:1.5508;stroke-miterlimit:10;}
	.st2{fill:none;stroke:#040404;stroke-width:2.52;stroke-miterlimit:10;}
	.st3{fill:none;stroke:#000000;stroke-width:1.68;stroke-miterlimit:10;}
	.st4{fill:none;stroke:#040404;stroke-width:2.8;stroke-miterlimit:10;}
	.st5{fill:none;stroke:#040404;stroke-width:1.4;stroke-miterlimit:10;}
</style>
<g id="XMLID_10_">
	<path id="XMLID_2935_" class="st0" d="M-417.9,248.7h42.2c0.8,0,1.4,0.6,1.4,1.4v62c0,0.8-0.6,1.4-1.4,1.4h-42.2
		c-0.8,0-1.4-0.6-1.4-1.4v-62C-419.2,249.3-418.6,248.7-417.9,248.7z"/>
	<path id="XMLID_12_" d="M-374.3,294h10.8c-0.1-1.8-1.1-7.8-7.6-8.8c-0.9,0.8-2,1.3-3.2,1.4v-1.1c2.7-0.2,4.8-3.1,4.8-6.7
		c0-3.6-2.1-6.5-4.8-6.7V271c3.3,0.2,5.9,3.6,5.9,7.8c0,2.1-0.7,4.1-1.8,5.5c7.7,1.7,7.8,10.1,7.8,10.2l0,0.5h-11.9V294z"/>
	<line id="XMLID_2941_" class="st1" x1="-358.1" y1="283.3" x2="-338.1" y2="283.3"/>
	<line id="XMLID_2940_" class="st2" x1="-358.1" y1="272.9" x2="-338.1" y2="272.9"/>
	<line id="XMLID_2939_" class="st2" x1="-358.1" y1="278.2" x2="-338.1" y2="278.2"/>
	<line id="XMLID_2938_" class="st1" x1="-358.1" y1="288" x2="-338.1" y2="288.1"/>
	<line id="XMLID_2937_" class="st1" x1="-358.1" y1="292.8" x2="-338.1" y2="292.8"/>
	<path id="XMLID_2925_" class="st3" d="M-332.8,263.8h-41.4v37.4h41.4c0.7,0,1.2-0.5,1.2-1.2V265
		C-331.6,264.3-332.2,263.8-332.8,263.8z"/>
	<line id="XMLID_2934_" class="st4" x1="-410.5" y1="260.9" x2="-383" y2="260.9"/>
	<line id="XMLID_2933_" class="st4" x1="-410.5" y1="266.9" x2="-383" y2="266.9"/>
	<g id="XMLID_2927_">
		<circle id="XMLID_2932_" class="st5" cx="-396.8" cy="289.3" r="13.4"/>
		<ellipse id="XMLID_2931_" class="st5" cx="-396.8" cy="289.3" rx="6.7" ry="13.4"/>
		<path id="XMLID_2930_" class="st5" d="M-386.3,281c-2.5,1.5-6.2,2.5-10.5,2.5c-4.2,0-8-1-10.5-2.5"/>
		<path id="XMLID_2929_" class="st5" d="M-407.3,297.5c2.5-1.6,6.3-2.6,10.6-2.6c4.3,0,8.1,1,10.6,2.6"/>
		<line id="XMLID_2928_" class="st5" x1="-410.2" y1="289.3" x2="-383.4" y2="289.3"/>
	</g>
</g>
</svg>
